# xmcd CD database file
#
# Track frame offsets:
#	150
#	17822
#	33184
#	51201
#	66225
#	82406
#	100740
#	116529
#	135661
#	151414
#	167341
#	181810
#	198501
#	215724
#	234139
#	252932
#	271115
#	288531
#	305948
#	322317
#
# Disc length: 4520 seconds
#
# Revision: 0
# Processed by: cddbd v1.5.2PL0 Copyright (c) Steve Scherf et al.
# Submitted via: NeoAudio 9.9.9
#
DISCID=2411a614
DTITLE=Kim Wilde - SELECTed  HITS
DYEAR=1900
DGENRE=Rhythmic Soul
TTITLE0=Cambodia
TTITLE1=Kids in America
TTITLE2=Can't get Enough (of Your love)
TTITLE3=Chequered love
TTITLE4=Water on Glass
TTITLE5=Child come Away
TTITLE6=Another step (Closed to You)
TTITLE7=You keep Me hangin'on
TTITLE8=View from a Bridge
TTITLE9=Love blonde
TTITLE10=Boys
TTITLE11=Dancing in the Dark
TTITLE12=Our town
TTITLE13=Never trust a Stranger
TTITLE14=You'll never Be so Wrong
TTITLE15=Four letter Word
TTITLE16=The second Time
TTITLE17=Take me Tonight
TTITLE18=Stay a While
TTITLE19=Everything we Know
EXTD=
EXTT0=
EXTT1=
EXTT2=
EXTT3=
EXTT4=
EXTT5=
EXTT6=
EXTT7=
EXTT8=
EXTT9=
EXTT10=
EXTT11=
EXTT12=
EXTT13=
EXTT14=
EXTT15=
EXTT16=
EXTT17=
EXTT18=
EXTT19=
PLAYORDER=
